<svg xmlns="http://www.w3.org/2000/svg" width="141" height="73" viewBox="0 0 141 73">
  <metadata><?xpacket begin="﻿" id="W5M0MpCehiHzreSzNTczkc9d"?>
<x:xmpmeta xmlns:x="adobe:ns:meta/" x:xmptk="Adobe XMP Core 5.6-c140 79.160451, 2017/05/06-01:08:21        ">
   <rdf:RDF xmlns:rdf="http://www.w3.org/1999/02/22-rdf-syntax-ns#">
      <rdf:Description rdf:about=""/>
   </rdf:RDF>
</x:xmpmeta>





















<?xpacket end="w"?></metadata>
<defs>
    <style>
      .cls-1 {
        fill: #2e3b4e;
        fill-rule: evenodd;
      }
    </style>
  </defs>
  <path class="cls-1" d="M-55.684,0A16.368,16.368,0,0,0-72,16.325v121.35A16.368,16.368,0,0,0-55.684,154H190.684A16.368,16.368,0,0,0,207,137.675V16.325A16.368,16.368,0,0,0,190.684,0H-55.684ZM165.531,96.863a16.368,16.368,0,0,1-16.316,16.326H-11.224A16.368,16.368,0,0,1-27.539,96.863V52.785A16.368,16.368,0,0,1-11.224,36.46H2.645c8.974,0,20.246,6.205,25.049,13.79,0,0,13.668,21.582,41.3,21.582s41.3-21.582,41.3-21.582c4.8-7.584,16.075-13.79,25.049-13.79h13.868a16.368,16.368,0,0,1,16.316,16.326V96.863Z"/>
</svg>
